<svg width="32" height="32" viewBox="0 0 32 32" fill="none" xmlns="http://www.w3.org/2000/svg">
<path d="M13 27C13 27.2652 12.8946 27.5196 12.7071 27.7071C12.5196 27.8946 12.2652 28 12 28H4C3.73478 28 3.48043 27.8946 3.29289 27.7071C3.10536 27.5196 3 27.2652 3 27V5C3 4.73478 3.10536 4.48043 3.29289 4.29289C3.48043 4.10536 3.73478 4 4 4H12C12.2652 4 12.5196 4.10536 12.7071 4.29289C12.8946 4.48043 13 4.73478 13 5C13 5.26522 12.8946 5.51957 12.7071 5.70711C12.5196 5.89464 12.2652 6 12 6H5V26H12C12.2652 26 12.5196 26.1054 12.7071 26.2929C12.8946 26.4804 13 26.7348 13 27ZM26.7075 15.2925L21.7075 10.2925C21.5199 10.1049 21.2654 9.99944 21 9.99944C20.7346 9.99944 20.4801 10.1049 20.2925 10.2925C20.1049 10.4801 19.9994 10.7346 19.9994 11C19.9994 11.2654 20.1049 11.5199 20.2925 11.7075L23.5863 15H12C11.7348 15 11.4804 15.1054 11.2929 15.2929C11.1054 15.4804 11 15.7348 11 16C11 16.2652 11.1054 16.5196 11.2929 16.7071C11.4804 16.8946 11.7348 17 12 17H23.5863L20.2925 20.2925C20.1049 20.4801 19.9994 20.7346 19.9994 21C19.9994 21.2654 20.1049 21.5199 20.2925 21.7075C20.4801 21.8951 20.7346 22.0006 21 22.0006C21.2654 22.0006 21.5199 21.8951 21.7075 21.7075L26.7075 16.7075C26.8005 16.6146 26.8742 16.5043 26.9246 16.3829C26.9749 16.2615 27.0008 16.1314 27.0008 16C27.0008 15.8686 26.9749 15.7385 26.9246 15.6171C26.8742 15.4957 26.8005 15.3854 26.7075 15.2925Z" fill="black"/>
</svg>